# xmcd CD database file
#
# Track frame offsets:
#	163
#	20908
#	40693
#	61665
#	76318
#	91163
#	109715
#	124584
#	142441
#	162425
#
# Disc length: 2470 seconds
#
# Revision: 0
# Processed by: cddbd v1.5.2PL0 Copyright (c) Steve Scherf et al.
# Submitted via: cdripper 1,0,33,916
#
DISCID=8009a40a
DTITLE=Bart Crow Band - Heartworn Tragedy
DYEAR=2009
DGENRE=Country
TTITLE0=Heartworn Tragedy
TTITLE1=Sayin' Goodbye
TTITLE2=Traded It All For Love
TTITLE3=Run With The Devil
TTITLE4=Should've Stayed Away
TTITLE5=Rock 'N Roll Dreamer
TTITLE6=Broken
TTITLE7=Satisfied Heart
TTITLE8=Shadow Dancer
TTITLE9=Surrender
EXTD=YEAR: 2009
EXTT0=
EXTT1=
EXTT2=
EXTT3=
EXTT4=
EXTT5=
EXTT6=
EXTT7=
EXTT8=
EXTT9=
PLAYORDER=
